name C:/MyDriveSym/Projects/mobilecap/Data\Session20210825_0002\mocap\ForceDataProcessed\walkingTS2_forces.mot
datacolumns 19
datarows 22
range 0.39200000 0.40250000
endheader 
time	R_ground_force_vx	R_ground_force_vy	R_ground_force_vz	R_ground_force_px	R_ground_force_py	R_ground_force_pz	R_ground_torque_x	R_ground_torque_y	R_ground_torque_z	L_ground_force_vx	L_ground_force_vy	L_ground_force_vz	L_ground_force_px	L_ground_force_py	L_ground_force_pz	L_ground_torque_x	L_ground_torque_y	L_ground_torque_z	
          0.39200000	         -0.16418100	        528.25152600	        -34.71749900	          0.27325500	          0.00600000	         -0.11825500	          0.00000000	         -2.55742100	          0.00000000	          0.00000000	          0.00000000	          0.00000000	          0.69984600	          0.00000000	         -0.25333400	          0.00000000	          0.00000000	          0.00000000	
          0.39250000	         -0.05364500	        528.65880000	        -34.80012800	          0.27341100	          0.00600000	         -0.11817400	          0.00000000	         -2.55431500	          0.00000000	          0.00000000	          0.00000000	          0.00000000	          0.69984600	          0.00000000	         -0.25333400	          0.00000000	          0.00000000	          0.00000000	
          0.39300000	          0.05729400	        529.06793700	        -34.88276000	          0.27356600	          0.00600000	         -0.11809400	          0.00000000	         -2.55119700	          0.00000000	          0.00000000	          0.00000000	          0.00000000	          0.69984600	          0.00000000	         -0.25333400	          0.00000000	          0.00000000	          0.00000000	
          0.39350000	          0.16864100	        529.47890100	        -34.96538900	          0.27372000	          0.00600000	         -0.11801400	          0.00000000	         -2.54806500	          0.00000000	          0.00000000	          0.00000000	          0.00000000	          0.69984600	          0.00000000	         -0.25333400	          0.00000000	          0.00000000	          0.00000000	
          0.39400000	          0.28040300	        529.89165700	        -35.04801300	          0.27387300	          0.00600000	         -0.11793400	          0.00000000	         -2.54492200	          0.00000000	          0.00000000	          0.00000000	          0.00000000	          0.69984600	          0.00000000	         -0.25333400	          0.00000000	          0.00000000	          0.00000000	
          0.39450000	          0.39258700	        530.30616800	        -35.13062500	          0.27402600	          0.00600000	         -0.11785500	          0.00000000	         -2.54176800	          0.00000000	          0.00000000	          0.00000000	          0.00000000	          0.69984600	          0.00000000	         -0.25333400	          0.00000000	          0.00000000	          0.00000000	
          0.39500000	          0.50519900	        530.72239900	        -35.21322300	          0.27417900	          0.00600000	         -0.11777600	          0.00000000	         -2.53860200	          0.00000000	          0.00000000	          0.00000000	          0.00000000	          0.69984600	          0.00000000	         -0.25333400	          0.00000000	          0.00000000	          0.00000000	
          0.39550000	          0.61824600	        531.14031500	        -35.29580100	          0.27433100	          0.00600000	         -0.11769700	          0.00000000	         -2.53542700	          0.00000000	          0.00000000	          0.00000000	          0.00000000	          0.69984600	          0.00000000	         -0.25333400	          0.00000000	          0.00000000	          0.00000000	
          0.39600000	          0.73173400	        531.55987800	        -35.37835500	          0.27448200	          0.00600000	         -0.11761900	          0.00000000	         -2.53224200	          0.00000000	          0.00000000	          0.00000000	          0.00000000	          0.69984600	          0.00000000	         -0.25333400	          0.00000000	          0.00000000	          0.00000000	
          0.39650000	          0.84566800	        531.98105500	        -35.46088200	          0.27463300	          0.00600000	         -0.11754100	          0.00000000	         -2.52904900	          0.00000000	          0.00000000	          0.00000000	          0.00000000	          0.69984600	          0.00000000	         -0.25333400	          0.00000000	          0.00000000	          0.00000000	
          0.39700000	          0.96005600	        532.40380900	        -35.54337600	          0.27478300	          0.00600000	         -0.11746300	          0.00000000	         -2.52584700	          0.00000000	          0.00000000	          0.00000000	          0.00000000	          0.69984600	          0.00000000	         -0.25333400	          0.00000000	          0.00000000	          0.00000000	
          0.39750000	          1.07490400	        532.82810500	        -35.62583400	          0.27493200	          0.00600000	         -0.11738500	          0.00000000	         -2.52263700	          0.00000000	          0.00000000	          0.00000000	          0.00000000	          0.69984600	          0.00000000	         -0.25333400	          0.00000000	          0.00000000	          0.00000000	
          0.39800000	          1.19021700	        533.25390700	        -35.70825100	          0.27508100	          0.00600000	         -0.11730800	          0.00000000	         -2.51942100	          0.00000000	          0.00000000	          0.00000000	          0.00000000	          0.69984600	          0.00000000	         -0.25333400	          0.00000000	          0.00000000	          0.00000000	
          0.39850000	          1.30600200	        533.68117900	        -35.79062400	          0.27522900	          0.00600000	         -0.11723100	          0.00000000	         -2.51619800	          0.00000000	          0.00000000	          0.00000000	          0.00000000	          0.69984600	          0.00000000	         -0.25333400	          0.00000000	          0.00000000	          0.00000000	
          0.39900000	          1.42226500	        534.10988800	        -35.87294800	          0.27537700	          0.00600000	         -0.11715500	          0.00000000	         -2.51296900	          0.00000000	          0.00000000	          0.00000000	          0.00000000	          0.69984600	          0.00000000	         -0.25333400	          0.00000000	          0.00000000	          0.00000000	
          0.39950000	          1.53901100	        534.53999600	        -35.95521900	          0.27552400	          0.00600000	         -0.11707900	          0.00000000	         -2.50973400	          0.00000000	          0.00000000	          0.00000000	          0.00000000	          0.69984600	          0.00000000	         -0.25333400	          0.00000000	          0.00000000	          0.00000000	
          0.40000000	          1.65624700	        534.97146900	        -36.03743300	          0.27567100	          0.00600000	         -0.11700300	          0.00000000	         -2.50649600	          0.00000000	          0.00000000	          0.00000000	          0.00000000	          0.69984600	          0.00000000	         -0.25333400	          0.00000000	          0.00000000	          0.00000000	
          0.40050000	          1.77397800	        535.40427100	        -36.11958600	          0.27581700	          0.00600000	         -0.11692700	          0.00000000	         -2.50325300	          0.00000000	          0.00000000	          0.00000000	          0.00000000	          0.69984600	          0.00000000	         -0.25333400	          0.00000000	          0.00000000	          0.00000000	
          0.40100000	          1.89221000	        535.83836700	        -36.20167400	          0.27596200	          0.00600000	         -0.11685200	          0.00000000	         -2.50000600	          0.00000000	          0.00000000	          0.00000000	          0.00000000	          0.69984600	          0.00000000	         -0.25333400	          0.00000000	          0.00000000	          0.00000000	
          0.40150000	          2.01094900	        536.27372200	        -36.28369300	          0.27610700	          0.00600000	         -0.11677700	          0.00000000	         -2.49675700	          0.00000000	          0.00000000	          0.00000000	          0.00000000	          0.69984600	          0.00000000	         -0.25333400	          0.00000000	          0.00000000	          0.00000000	
          0.40200000	          2.13020000	        536.71030100	        -36.36563900	          0.27625100	          0.00600000	         -0.11670300	          0.00000000	         -2.49350500	          0.00000000	          0.00000000	          0.00000000	          0.00000000	          0.69984600	          0.00000000	         -0.25333400	          0.00000000	          0.00000000	          0.00000000	
          0.40250000	          2.24996800	        537.14806800	        -36.44750900	          0.27639500	          0.00600000	         -0.11662900	          0.00000000	         -2.49025200	          0.00000000	          0.00000000	          0.00000000	          0.00000000	          0.69984600	          0.00000000	         -0.25333400	          0.00000000	          0.00000000	          0.00000000	
